# xmcd
#
# Track frame offsets: 
#        150
#        4522
#        18170
#        33077
#        48972
#        64595
#        76845
#        91327
#        97860
#        107447
#        112612
#        122612
#        128327
#        138307
#        146700
#        157132
#        168160
#        184872
#        189797
#        196977
#        204185
#        210445
#        217452
#        230507
#        243480
#        253992
#        265997
#        274780
#
# Disc length: 3791 seconds
#
# Revision: 2
# Processed by: cddbd v1.5.2PL0 Copyright (c) Steve Scherf et al.
# Submitted via: ExactAudioCopy v0.99pb4
#
DISCID=6f0ecd1c
DTITLE=Leadbelly - Complete Recorded Works 1947-1949 - Volume 7
DYEAR=1999
DGENRE=Blues
TTITLE0=Green Corn ("This is Jazz" Broadcast)
TTITLE1=John Henry ("This is Jazz" Broadcast)
TTITLE2=Tell Me Baby What Was Wrong With You
TTITLE3=Noted Rider
TTITLE4=Take A Whiff On Me
TTITLE5=Ox Driving Moan
TTITLE6=John Henry
TTITLE7=Pick Up A Bale Of Cotton
TTITLE8=Go Down, Old Hannah
TTITLE9=Ain't Going Down To The Well No More
TTITLE10=Shout On (Honey I'm All Out And Down)
TTITLE11=It Was Soon One Morning
TTITLE12=Whoa Back Buck
TTITLE13=Birmingham Jail (Down In The Valley)
TTITLE14=Take This Hammer
TTITLE15=It Was Early One Mornin' (Jail House Blues)
TTITLE16=Goin' Back To Mary (If I Had You Governor/Governor Pat Neff)
TTITLE17=Come And Sit Down Beside Me
TTITLE18=Ha, Ha This A Way
TTITLE19=You Can't Lose A Me, Charlie
TTITLE20=Rooster Crows At Midnight (Christmas Day)
TTITLE21=Skip To My Lou
TTITLE22=Parting Song (When You Smile-o)
TTITLE23=Good Morning Blues (WNYC Jazz Festival)
TTITLE24=Ain't Gonna Let You Worry My Life No More (WNYC Jazz Festival
TTITLE24=)
TTITLE25=Pretty Papa (WNYC Jazz Festival)
TTITLE26=Old Ship Of Zion (with Martha Ledbetter) (Live)
TTITLE27=I Will Be So Glad When I Get Home ( with Martha Ledbetter) (L
TTITLE27=ive)
EXTD=
EXTT0=
EXTT1=
EXTT2=
EXTT3=
EXTT4=
EXTT5=
EXTT6=
EXTT7=
EXTT8=
EXTT9=
EXTT10=
EXTT11=
EXTT12=
EXTT13=
EXTT14=
EXTT15=
EXTT16=
EXTT17=
EXTT18=
EXTT19=
EXTT20=
EXTT21=
EXTT22=
EXTT23=
EXTT24=
EXTT25=
EXTT26=
EXTT27=
PLAYORDER=
